<svg width="150" height="83" viewBox="0 0 150 83" fill="none" xmlns="http://www.w3.org/2000/svg">
<rect width="150" height="39" rx="5" fill="#FFD9D8"/>
<path d="M37.6641 21.0703C37.6641 20.8359 37.6276 20.6276 37.5547 20.4453C37.487 20.263 37.3646 20.0964 37.1875 19.9453C37.0104 19.7943 36.7604 19.6484 36.4375 19.5078C36.1198 19.362 35.7135 19.2135 35.2188 19.0625C34.6771 18.8958 34.1771 18.7109 33.7188 18.5078C33.2656 18.2995 32.8698 18.0599 32.5312 17.7891C32.1927 17.513 31.9297 17.1979 31.7422 16.8438C31.5547 16.4844 31.4609 16.0703 31.4609 15.6016C31.4609 15.138 31.5573 14.7161 31.75 14.3359C31.9479 13.9557 32.2266 13.6276 32.5859 13.3516C32.9505 13.0703 33.3802 12.8542 33.875 12.7031C34.3698 12.5469 34.9167 12.4688 35.5156 12.4688C36.3594 12.4688 37.0859 12.625 37.6953 12.9375C38.3099 13.25 38.7812 13.6693 39.1094 14.1953C39.4427 14.7214 39.6094 15.3021 39.6094 15.9375H37.6641C37.6641 15.5625 37.5833 15.2318 37.4219 14.9453C37.2656 14.6536 37.026 14.4245 36.7031 14.2578C36.3854 14.0911 35.9818 14.0078 35.4922 14.0078C35.0286 14.0078 34.6432 14.0781 34.3359 14.2188C34.0286 14.3594 33.7995 14.5495 33.6484 14.7891C33.4974 15.0286 33.4219 15.2995 33.4219 15.6016C33.4219 15.8151 33.4714 16.0104 33.5703 16.1875C33.6693 16.3594 33.8203 16.5208 34.0234 16.6719C34.2266 16.8177 34.4818 16.9557 34.7891 17.0859C35.0964 17.2161 35.4583 17.3411 35.875 17.4609C36.5052 17.6484 37.0547 17.8568 37.5234 18.0859C37.9922 18.3099 38.3828 18.5651 38.6953 18.8516C39.0078 19.138 39.2422 19.4635 39.3984 19.8281C39.5547 20.1875 39.6328 20.5964 39.6328 21.0547C39.6328 21.5339 39.5365 21.9661 39.3438 22.3516C39.151 22.7318 38.875 23.0573 38.5156 23.3281C38.1615 23.5938 37.7344 23.7995 37.2344 23.9453C36.7396 24.0859 36.1875 24.1562 35.5781 24.1562C35.0312 24.1562 34.4922 24.0833 33.9609 23.9375C33.4349 23.7917 32.9557 23.5703 32.5234 23.2734C32.0911 22.9714 31.7474 22.5964 31.4922 22.1484C31.237 21.6953 31.1094 21.1667 31.1094 20.5625H33.0703C33.0703 20.9323 33.1328 21.2474 33.2578 21.5078C33.388 21.7682 33.5677 21.9818 33.7969 22.1484C34.026 22.3099 34.2917 22.4297 34.5938 22.5078C34.901 22.5859 35.2292 22.625 35.5781 22.625C36.0365 22.625 36.4193 22.5599 36.7266 22.4297C37.0391 22.2995 37.2734 22.1172 37.4297 21.8828C37.5859 21.6484 37.6641 21.3776 37.6641 21.0703ZM45.0547 15.5469V16.9219H40.2891V15.5469H45.0547ZM41.6641 13.4766H43.5469V21.6641C43.5469 21.9245 43.5833 22.125 43.6562 22.2656C43.7344 22.401 43.8411 22.4922 43.9766 22.5391C44.112 22.5859 44.2708 22.6094 44.4531 22.6094C44.5833 22.6094 44.7083 22.6016 44.8281 22.5859C44.9479 22.5703 45.0443 22.5547 45.1172 22.5391L45.125 23.9766C44.9688 24.0234 44.7865 24.0651 44.5781 24.1016C44.375 24.138 44.1406 24.1562 43.875 24.1562C43.4427 24.1562 43.0599 24.0807 42.7266 23.9297C42.3932 23.7734 42.1328 23.5208 41.9453 23.1719C41.7578 22.8229 41.6641 22.3594 41.6641 21.7812V13.4766ZM51.5938 22.0078V15.5469H53.4844V24H51.7031L51.5938 22.0078ZM51.8594 20.25L52.4922 20.2344C52.4922 20.8021 52.4297 21.3255 52.3047 21.8047C52.1797 22.2786 51.987 22.6927 51.7266 23.0469C51.4661 23.3958 51.1328 23.6693 50.7266 23.8672C50.3203 24.0599 49.8333 24.1562 49.2656 24.1562C48.8542 24.1562 48.4766 24.0964 48.1328 23.9766C47.7891 23.8568 47.4922 23.6719 47.2422 23.4219C46.9974 23.1719 46.8073 22.8464 46.6719 22.4453C46.5365 22.0443 46.4688 21.5651 46.4688 21.0078V15.5469H48.3516V21.0234C48.3516 21.3307 48.388 21.5885 48.4609 21.7969C48.5339 22 48.6328 22.1641 48.7578 22.2891C48.8828 22.4141 49.0286 22.5026 49.1953 22.5547C49.362 22.6068 49.5391 22.6328 49.7266 22.6328C50.263 22.6328 50.6849 22.5286 50.9922 22.3203C51.3047 22.1068 51.526 21.8203 51.6562 21.4609C51.7917 21.1016 51.8594 20.6979 51.8594 20.25ZM60.5703 22.25V12H62.4609V24H60.75L60.5703 22.25ZM55.0703 19.8672V19.7031C55.0703 19.0625 55.1458 18.4792 55.2969 17.9531C55.4479 17.4219 55.6667 16.9661 55.9531 16.5859C56.2396 16.2005 56.5885 15.9062 57 15.7031C57.4115 15.4948 57.875 15.3906 58.3906 15.3906C58.901 15.3906 59.349 15.4896 59.7344 15.6875C60.1198 15.8854 60.4479 16.1693 60.7188 16.5391C60.9896 16.9036 61.2057 17.3411 61.3672 17.8516C61.5286 18.3568 61.6432 18.9193 61.7109 19.5391V20.0625C61.6432 20.6667 61.5286 21.2188 61.3672 21.7188C61.2057 22.2188 60.9896 22.651 60.7188 23.0156C60.4479 23.3802 60.1172 23.6615 59.7266 23.8594C59.3411 24.0573 58.8906 24.1562 58.375 24.1562C57.8646 24.1562 57.4036 24.0495 56.9922 23.8359C56.5859 23.6224 56.2396 23.3229 55.9531 22.9375C55.6667 22.5521 55.4479 22.099 55.2969 21.5781C55.1458 21.0521 55.0703 20.4818 55.0703 19.8672ZM56.9531 19.7031V19.8672C56.9531 20.2526 56.987 20.612 57.0547 20.9453C57.1276 21.2786 57.2396 21.5729 57.3906 21.8281C57.5417 22.0781 57.737 22.276 57.9766 22.4219C58.2214 22.5625 58.513 22.6328 58.8516 22.6328C59.2786 22.6328 59.6302 22.5391 59.9062 22.3516C60.1823 22.1641 60.3984 21.9115 60.5547 21.5938C60.7161 21.2708 60.8255 20.9115 60.8828 20.5156V19.1016C60.8516 18.7943 60.7865 18.5078 60.6875 18.2422C60.5938 17.9766 60.4661 17.7448 60.3047 17.5469C60.1432 17.3438 59.9427 17.1875 59.7031 17.0781C59.4688 16.9635 59.1901 16.9062 58.8672 16.9062C58.5234 16.9062 58.2318 16.9792 57.9922 17.125C57.7526 17.2708 57.5547 17.4714 57.3984 17.7266C57.2474 17.9818 57.1354 18.2786 57.0625 18.6172C56.9896 18.9557 56.9531 19.3177 56.9531 19.7031ZM66.8828 23.0781L69.1797 15.5469H71.1953L67.8047 25.2891C67.7266 25.4974 67.625 25.724 67.5 25.9688C67.375 26.2135 67.2109 26.4453 67.0078 26.6641C66.8099 26.888 66.5625 27.0677 66.2656 27.2031C65.9688 27.3438 65.6094 27.4141 65.1875 27.4141C65.0208 27.4141 64.8594 27.3984 64.7031 27.3672C64.5521 27.3411 64.4089 27.3125 64.2734 27.2812L64.2656 25.8438C64.3177 25.849 64.3802 25.8542 64.4531 25.8594C64.5312 25.8646 64.5938 25.8672 64.6406 25.8672C64.9531 25.8672 65.2135 25.8281 65.4219 25.75C65.6302 25.6771 65.7995 25.5573 65.9297 25.3906C66.0651 25.224 66.1797 25 66.2734 24.7188L66.8828 23.0781ZM65.5859 15.5469L67.5938 21.875L67.9297 23.8594L66.625 24.1953L63.5547 15.5469H65.5859ZM79.75 24H77.3203L77.3359 22.4453H79.75C80.4531 22.4453 81.0417 22.2917 81.5156 21.9844C81.9948 21.6771 82.3542 21.237 82.5938 20.6641C82.8385 20.0911 82.9609 19.4089 82.9609 18.6172V18C82.9609 17.3854 82.8906 16.8411 82.75 16.3672C82.6146 15.8932 82.4115 15.4948 82.1406 15.1719C81.875 14.849 81.5469 14.6042 81.1562 14.4375C80.7708 14.2708 80.3255 14.1875 79.8203 14.1875H77.2734V12.625H79.8203C80.5755 12.625 81.2656 12.7526 81.8906 13.0078C82.5156 13.2578 83.0547 13.6198 83.5078 14.0938C83.9661 14.5677 84.3177 15.1354 84.5625 15.7969C84.8073 16.4583 84.9297 17.1979 84.9297 18.0156V18.6172C84.9297 19.4349 84.8073 20.1745 84.5625 20.8359C84.3177 21.4974 83.9661 22.0651 83.5078 22.5391C83.0495 23.0078 82.5026 23.3698 81.8672 23.625C81.237 23.875 80.5312 24 79.75 24ZM78.4062 12.625V24H76.4453V12.625H78.4062ZM91.4766 22.3047V18.2734C91.4766 17.9714 91.4219 17.7109 91.3125 17.4922C91.2031 17.2734 91.0365 17.1042 90.8125 16.9844C90.5938 16.8646 90.3177 16.8047 89.9844 16.8047C89.6771 16.8047 89.4115 16.8568 89.1875 16.9609C88.9635 17.0651 88.7891 17.2057 88.6641 17.3828C88.5391 17.5599 88.4766 17.7604 88.4766 17.9844H86.6016C86.6016 17.651 86.6823 17.3281 86.8438 17.0156C87.0052 16.7031 87.2396 16.4245 87.5469 16.1797C87.8542 15.9349 88.2214 15.7422 88.6484 15.6016C89.0755 15.4609 89.5547 15.3906 90.0859 15.3906C90.7214 15.3906 91.2839 15.4974 91.7734 15.7109C92.2682 15.9245 92.6562 16.2474 92.9375 16.6797C93.224 17.1068 93.3672 17.6432 93.3672 18.2891V22.0469C93.3672 22.4323 93.3932 22.7786 93.4453 23.0859C93.5026 23.388 93.5833 23.651 93.6875 23.875V24H91.7578C91.6693 23.7969 91.599 23.5391 91.5469 23.2266C91.5 22.9089 91.4766 22.6016 91.4766 22.3047ZM91.75 18.8594L91.7656 20.0234H90.4141C90.0651 20.0234 89.7578 20.0573 89.4922 20.125C89.2266 20.1875 89.0052 20.2812 88.8281 20.4062C88.651 20.5312 88.5182 20.6823 88.4297 20.8594C88.3411 21.0365 88.2969 21.237 88.2969 21.4609C88.2969 21.6849 88.349 21.8906 88.4531 22.0781C88.5573 22.2604 88.7083 22.4036 88.9062 22.5078C89.1094 22.612 89.3542 22.6641 89.6406 22.6641C90.026 22.6641 90.362 22.5859 90.6484 22.4297C90.9401 22.2682 91.1693 22.0729 91.3359 21.8438C91.5026 21.6094 91.5911 21.388 91.6016 21.1797L92.2109 22.0156C92.1484 22.2292 92.0417 22.4583 91.8906 22.7031C91.7396 22.9479 91.5417 23.1823 91.2969 23.4062C91.0573 23.625 90.7682 23.8047 90.4297 23.9453C90.0964 24.0859 89.7109 24.1562 89.2734 24.1562C88.7214 24.1562 88.2292 24.0469 87.7969 23.8281C87.3646 23.6042 87.026 23.3047 86.7812 22.9297C86.5365 22.5495 86.4141 22.1198 86.4141 21.6406C86.4141 21.1927 86.4974 20.7969 86.6641 20.4531C86.8359 20.1042 87.0859 19.8125 87.4141 19.5781C87.7474 19.3438 88.1536 19.1667 88.6328 19.0469C89.112 18.9219 89.6589 18.8594 90.2734 18.8594H91.75ZM97.2031 17.3516V24H95.3203V15.5469H97.0938L97.2031 17.3516ZM96.8672 19.4609L96.2578 19.4531C96.263 18.8542 96.3464 18.3047 96.5078 17.8047C96.6745 17.3047 96.9036 16.875 97.1953 16.5156C97.4922 16.1562 97.8464 15.8802 98.2578 15.6875C98.6693 15.4896 99.1276 15.3906 99.6328 15.3906C100.039 15.3906 100.406 15.4479 100.734 15.5625C101.068 15.6719 101.352 15.8516 101.586 16.1016C101.826 16.3516 102.008 16.6771 102.133 17.0781C102.258 17.474 102.32 17.9609 102.32 18.5391V24H100.43V18.5312C100.43 18.125 100.37 17.8047 100.25 17.5703C100.135 17.3307 99.9661 17.1615 99.7422 17.0625C99.5234 16.9583 99.25 16.9062 98.9219 16.9062C98.599 16.9062 98.3099 16.974 98.0547 17.1094C97.7995 17.2448 97.5833 17.4297 97.4062 17.6641C97.2344 17.8984 97.1016 18.1693 97.0078 18.4766C96.9141 18.7839 96.8672 19.112 96.8672 19.4609ZM106.258 15.5469V24H104.367V15.5469H106.258ZM104.242 13.3281C104.242 13.0417 104.336 12.8047 104.523 12.6172C104.716 12.4245 104.982 12.3281 105.32 12.3281C105.654 12.3281 105.917 12.4245 106.109 12.6172C106.302 12.8047 106.398 13.0417 106.398 13.3281C106.398 13.6094 106.302 13.8438 106.109 14.0312C105.917 14.2188 105.654 14.3125 105.32 14.3125C104.982 14.3125 104.716 14.2188 104.523 14.0312C104.336 13.8438 104.242 13.6094 104.242 13.3281ZM113.062 21.7109C113.062 21.5234 113.016 21.3542 112.922 21.2031C112.828 21.0469 112.648 20.9062 112.383 20.7812C112.122 20.6562 111.737 20.5417 111.227 20.4375C110.779 20.3385 110.367 20.2214 109.992 20.0859C109.622 19.9453 109.305 19.776 109.039 19.5781C108.773 19.3802 108.568 19.1458 108.422 18.875C108.276 18.6042 108.203 18.2917 108.203 17.9375C108.203 17.5938 108.279 17.2682 108.43 16.9609C108.581 16.6536 108.797 16.3828 109.078 16.1484C109.359 15.9141 109.701 15.7292 110.102 15.5938C110.508 15.4583 110.961 15.3906 111.461 15.3906C112.169 15.3906 112.776 15.5104 113.281 15.75C113.792 15.9844 114.182 16.3047 114.453 16.7109C114.724 17.112 114.859 17.5651 114.859 18.0703H112.977C112.977 17.8464 112.919 17.638 112.805 17.4453C112.695 17.2474 112.529 17.0885 112.305 16.9688C112.081 16.8438 111.799 16.7812 111.461 16.7812C111.138 16.7812 110.87 16.8333 110.656 16.9375C110.448 17.0365 110.292 17.1667 110.188 17.3281C110.089 17.4896 110.039 17.6667 110.039 17.8594C110.039 18 110.065 18.1276 110.117 18.2422C110.174 18.3516 110.268 18.4531 110.398 18.5469C110.529 18.6354 110.706 18.7188 110.93 18.7969C111.159 18.875 111.445 18.9505 111.789 19.0234C112.435 19.1589 112.99 19.3333 113.453 19.5469C113.922 19.7552 114.281 20.026 114.531 20.3594C114.781 20.6875 114.906 21.1042 114.906 21.6094C114.906 21.9844 114.826 22.3281 114.664 22.6406C114.508 22.9479 114.279 23.2161 113.977 23.4453C113.674 23.6693 113.312 23.8438 112.891 23.9688C112.474 24.0938 112.005 24.1562 111.484 24.1562C110.719 24.1562 110.07 24.0208 109.539 23.75C109.008 23.474 108.604 23.1224 108.328 22.6953C108.057 22.263 107.922 21.8151 107.922 21.3516H109.742C109.763 21.7005 109.859 21.9792 110.031 22.1875C110.208 22.3906 110.427 22.5391 110.688 22.6328C110.953 22.7214 111.227 22.7656 111.508 22.7656C111.846 22.7656 112.13 22.7214 112.359 22.6328C112.589 22.5391 112.763 22.4141 112.883 22.2578C113.003 22.0964 113.062 21.9141 113.062 21.7109ZM118.414 12V24H116.539V12H118.414ZM118.086 19.4609L117.477 19.4531C117.482 18.8698 117.562 18.3307 117.719 17.8359C117.88 17.3411 118.104 16.9115 118.391 16.5469C118.682 16.1771 119.031 15.8932 119.438 15.6953C119.844 15.4922 120.294 15.3906 120.789 15.3906C121.206 15.3906 121.581 15.4479 121.914 15.5625C122.253 15.6771 122.544 15.862 122.789 16.1172C123.034 16.3672 123.219 16.6953 123.344 17.1016C123.474 17.5026 123.539 17.9922 123.539 18.5703V24H121.648V18.5547C121.648 18.1484 121.589 17.8255 121.469 17.5859C121.354 17.3464 121.185 17.1745 120.961 17.0703C120.737 16.9609 120.464 16.9062 120.141 16.9062C119.802 16.9062 119.503 16.974 119.242 17.1094C118.987 17.2448 118.773 17.4297 118.602 17.6641C118.43 17.8984 118.299 18.1693 118.211 18.4766C118.128 18.7839 118.086 19.112 118.086 19.4609Z" fill="#DB524D"/>
<g clip-path="url(#clip0_29_189)">
<path d="M88.582 64.2674C84.3368 68.4439 80.2656 72.4697 76.1925 76.4864C75.9153 76.7588 75.6852 77.1056 75.3536 77.289C74.8372 77.5723 74.1415 78.0281 73.7229 77.8847C73.3297 77.7485 73 76.9241 73 76.4102C72.9873 71.6889 73.0489 66.9767 73.0978 62.259C73.1467 57.4052 73.192 52.5513 73.2645 47.6993C73.3207 43.8859 73.4457 40.0726 73.4837 36.2465C73.5435 30.3994 73.5145 24.5541 73.5834 18.7069C73.5834 18.1367 74.0182 17.5684 74.252 17C74.8426 17.2488 75.5746 17.3632 76.0022 17.7645C81.1208 22.5984 86.1958 27.4758 91.2817 32.3406L112.519 52.653C115.104 55.1262 117.71 57.5813 120.253 60.0981C120.647 60.4867 120.759 61.1295 121 61.6543C120.409 61.8867 119.808 62.3407 119.23 62.3153C113.843 62.081 108.462 61.7705 103.079 61.4782C102.738 61.46 102.394 61.4782 101.778 61.4782C102.773 63.5537 103.698 65.5022 104.635 67.4433C106.164 70.6193 107.666 73.7989 109.252 76.9549C109.846 78.1389 109.527 78.7708 108.295 79.2538C105.432 80.3742 102.597 81.5219 99.7848 82.7349C98.5473 83.2796 97.8751 82.9891 97.3171 81.8451C94.7279 76.5373 92.0826 71.2531 89.4554 65.9616C89.2053 65.4604 88.9444 64.9665 88.582 64.2674Z" fill="#DB524D"/>
</g>
<defs>
<clipPath id="clip0_29_189">
<rect width="48" height="66" fill="white" transform="translate(73 17)"/>
</clipPath>
</defs>
</svg>
