<svg width="130" height="101" viewBox="0 0 130 101" fill="none" xmlns="http://www.w3.org/2000/svg">
<rect x="1" y="1" width="128" height="24" rx="4" stroke="#DB524D" stroke-width="2" stroke-dasharray="5 5"/>
<rect y="37" width="130" height="26" rx="5" fill="#FFD9D8"/>
<rect y="75" width="130" height="26" rx="5" fill="#FFD9D8"/>
<path d="M30.6436 52.4365C30.6436 52.2314 30.6117 52.0492 30.5479 51.8896C30.4886 51.7301 30.3815 51.5843 30.2266 51.4521C30.0716 51.32 29.8529 51.1924 29.5703 51.0693C29.2923 50.9417 28.9368 50.8118 28.5039 50.6797C28.0299 50.5339 27.5924 50.3721 27.1914 50.1943C26.7949 50.012 26.4486 49.8024 26.1523 49.5654C25.8561 49.3239 25.626 49.0482 25.4619 48.7383C25.2979 48.4238 25.2158 48.0615 25.2158 47.6514C25.2158 47.2458 25.3001 46.8766 25.4688 46.5439C25.6419 46.2113 25.8857 45.9242 26.2002 45.6826C26.5192 45.4365 26.8952 45.2474 27.3281 45.1152C27.7611 44.9785 28.2396 44.9102 28.7637 44.9102C29.502 44.9102 30.1377 45.0469 30.6709 45.3203C31.2087 45.5938 31.6211 45.9606 31.9082 46.4209C32.1999 46.8812 32.3457 47.3893 32.3457 47.9453H30.6436C30.6436 47.6172 30.5729 47.3278 30.4316 47.0771C30.2949 46.8219 30.0853 46.6214 29.8027 46.4756C29.5247 46.3298 29.1715 46.2568 28.7432 46.2568C28.3376 46.2568 28.0003 46.3184 27.7314 46.4414C27.4626 46.5645 27.262 46.7308 27.1299 46.9404C26.9977 47.1501 26.9316 47.387 26.9316 47.6514C26.9316 47.8382 26.9749 48.0091 27.0615 48.1641C27.1481 48.3145 27.2803 48.4557 27.458 48.5879C27.6357 48.7155 27.859 48.8363 28.1279 48.9502C28.3968 49.0641 28.7135 49.1735 29.0781 49.2783C29.6296 49.4424 30.1104 49.6247 30.5205 49.8252C30.9307 50.0212 31.2725 50.2445 31.5459 50.4951C31.8193 50.7458 32.0244 51.0306 32.1611 51.3496C32.2979 51.6641 32.3662 52.0218 32.3662 52.4229C32.3662 52.8421 32.2819 53.2204 32.1133 53.5576C31.9447 53.8903 31.7031 54.1751 31.3887 54.4121C31.0788 54.6445 30.7051 54.8245 30.2676 54.9521C29.8346 55.0752 29.3516 55.1367 28.8184 55.1367C28.3398 55.1367 27.8682 55.0729 27.4033 54.9453C26.943 54.8177 26.5238 54.624 26.1455 54.3643C25.7673 54.0999 25.4665 53.7718 25.2432 53.3799C25.0199 52.9834 24.9082 52.5208 24.9082 51.9922H26.624C26.624 52.3158 26.6787 52.5915 26.7881 52.8193C26.902 53.0472 27.0592 53.234 27.2598 53.3799C27.4603 53.5212 27.6927 53.626 27.957 53.6943C28.2259 53.7627 28.513 53.7969 28.8184 53.7969C29.2194 53.7969 29.5544 53.7399 29.8232 53.626C30.0967 53.512 30.3018 53.3525 30.4385 53.1475C30.5752 52.9424 30.6436 52.7054 30.6436 52.4365ZM37.1104 47.6035V48.8066H32.9404V47.6035H37.1104ZM34.1436 45.792H35.791V52.9561C35.791 53.1839 35.8229 53.3594 35.8867 53.4824C35.9551 53.6009 36.0485 53.6807 36.167 53.7217C36.2855 53.7627 36.4245 53.7832 36.584 53.7832C36.6979 53.7832 36.8073 53.7764 36.9121 53.7627C37.0169 53.749 37.1012 53.7354 37.165 53.7217L37.1719 54.9795C37.0352 55.0205 36.8757 55.057 36.6934 55.0889C36.5156 55.1208 36.3105 55.1367 36.0781 55.1367C35.6999 55.1367 35.3649 55.0706 35.0732 54.9385C34.7816 54.8018 34.5537 54.5807 34.3896 54.2754C34.2256 53.9701 34.1436 53.5645 34.1436 53.0586V45.792ZM42.832 53.2568V47.6035H44.4863V55H42.9277L42.832 53.2568ZM43.0645 51.7188L43.6182 51.7051C43.6182 52.2018 43.5635 52.6598 43.4541 53.0791C43.3447 53.4938 43.1761 53.8561 42.9482 54.166C42.7204 54.4714 42.4287 54.7106 42.0732 54.8838C41.7178 55.0524 41.2917 55.1367 40.7949 55.1367C40.4349 55.1367 40.1045 55.0843 39.8037 54.9795C39.5029 54.8747 39.2432 54.7129 39.0244 54.4941C38.8102 54.2754 38.6439 53.9906 38.5254 53.6396C38.4069 53.2887 38.3477 52.8695 38.3477 52.3818V47.6035H39.9951V52.3955C39.9951 52.6644 40.027 52.89 40.0908 53.0723C40.1546 53.25 40.2412 53.3936 40.3506 53.5029C40.46 53.6123 40.5876 53.6898 40.7334 53.7354C40.8792 53.7809 41.0342 53.8037 41.1982 53.8037C41.6676 53.8037 42.0368 53.7126 42.3057 53.5303C42.5791 53.3434 42.7728 53.0928 42.8867 52.7783C43.0052 52.4639 43.0645 52.1107 43.0645 51.7188ZM50.6865 53.4688V44.5H52.3408V55H50.8438L50.6865 53.4688ZM45.874 51.3838V51.2402C45.874 50.6797 45.9401 50.1693 46.0723 49.709C46.2044 49.2441 46.3958 48.8454 46.6465 48.5127C46.8971 48.1755 47.2025 47.918 47.5625 47.7402C47.9225 47.5579 48.3281 47.4668 48.7793 47.4668C49.2259 47.4668 49.6178 47.5534 49.9551 47.7266C50.2923 47.8997 50.5794 48.1481 50.8164 48.4717C51.0534 48.7907 51.2425 49.1735 51.3838 49.6201C51.5251 50.0622 51.6253 50.5544 51.6846 51.0967V51.5547C51.6253 52.0833 51.5251 52.5664 51.3838 53.0039C51.2425 53.4414 51.0534 53.8197 50.8164 54.1387C50.5794 54.4577 50.29 54.7038 49.9482 54.877C49.611 55.0501 49.2168 55.1367 48.7656 55.1367C48.319 55.1367 47.9157 55.0433 47.5557 54.8564C47.2002 54.6696 46.8971 54.4076 46.6465 54.0703C46.3958 53.7331 46.2044 53.3366 46.0723 52.8809C45.9401 52.4206 45.874 51.9215 45.874 51.3838ZM47.5215 51.2402V51.3838C47.5215 51.721 47.5511 52.0355 47.6104 52.3271C47.6742 52.6188 47.7721 52.8763 47.9043 53.0996C48.0365 53.3184 48.2074 53.4915 48.417 53.6191C48.6312 53.7422 48.8864 53.8037 49.1826 53.8037C49.5563 53.8037 49.8639 53.7217 50.1055 53.5576C50.347 53.3936 50.5361 53.1725 50.6729 52.8945C50.8141 52.612 50.9098 52.2975 50.96 51.9512V50.7139C50.9326 50.445 50.8757 50.1943 50.7891 49.9619C50.707 49.7295 50.5954 49.5267 50.4541 49.3535C50.3128 49.1758 50.1374 49.0391 49.9277 48.9434C49.7227 48.8431 49.4788 48.793 49.1963 48.793C48.8955 48.793 48.6403 48.8568 48.4307 48.9844C48.221 49.112 48.0479 49.2874 47.9111 49.5107C47.779 49.734 47.681 49.9938 47.6172 50.29C47.5534 50.5863 47.5215 50.903 47.5215 51.2402ZM56.21 54.1934L58.2197 47.6035H59.9834L57.0166 56.1279C56.9482 56.3102 56.8594 56.5085 56.75 56.7227C56.6406 56.9368 56.4971 57.1396 56.3193 57.3311C56.1462 57.527 55.9297 57.6842 55.6699 57.8027C55.4102 57.9258 55.0957 57.9873 54.7266 57.9873C54.5807 57.9873 54.4395 57.9736 54.3027 57.9463C54.1706 57.9235 54.0452 57.8984 53.9268 57.8711L53.9199 56.6133C53.9655 56.6178 54.0202 56.6224 54.084 56.627C54.1523 56.6315 54.207 56.6338 54.248 56.6338C54.5215 56.6338 54.7493 56.5996 54.9316 56.5312C55.1139 56.4674 55.262 56.3626 55.376 56.2168C55.4945 56.071 55.5947 55.875 55.6768 55.6289L56.21 54.1934ZM55.0752 47.6035L56.832 53.1406L57.126 54.877L55.9844 55.1709L53.2979 47.6035H55.0752ZM67.4688 55H65.3428L65.3564 53.6396H67.4688C68.084 53.6396 68.599 53.5052 69.0137 53.2363C69.4329 52.9674 69.7474 52.5824 69.957 52.0811C70.1712 51.5798 70.2783 50.9827 70.2783 50.29V49.75C70.2783 49.2122 70.2168 48.736 70.0938 48.3213C69.9753 47.9066 69.7975 47.5579 69.5605 47.2754C69.3281 46.9928 69.041 46.7786 68.6992 46.6328C68.362 46.487 67.9723 46.4141 67.5303 46.4141H65.3018V45.0469H67.5303C68.1911 45.0469 68.7949 45.1585 69.3418 45.3818C69.8887 45.6006 70.3604 45.9173 70.7568 46.332C71.1579 46.7467 71.4655 47.2435 71.6797 47.8223C71.8939 48.401 72.001 49.0482 72.001 49.7637V50.29C72.001 51.0055 71.8939 51.6527 71.6797 52.2314C71.4655 52.8102 71.1579 53.307 70.7568 53.7217C70.3558 54.1318 69.8773 54.4486 69.3213 54.6719C68.7699 54.8906 68.1523 55 67.4688 55ZM66.293 45.0469V55H64.5771V45.0469H66.293ZM77.7295 53.5166V49.9893C77.7295 49.7249 77.6816 49.4971 77.5859 49.3057C77.4902 49.1143 77.3444 48.9661 77.1484 48.8613C76.957 48.7565 76.7155 48.7041 76.4238 48.7041C76.1549 48.7041 75.9225 48.7497 75.7266 48.8408C75.5306 48.932 75.3779 49.055 75.2686 49.21C75.1592 49.3649 75.1045 49.5404 75.1045 49.7363H73.4639C73.4639 49.4447 73.5345 49.1621 73.6758 48.8887C73.8171 48.6152 74.0221 48.3714 74.291 48.1572C74.5599 47.943 74.8812 47.7744 75.2549 47.6514C75.6286 47.5283 76.0479 47.4668 76.5127 47.4668C77.0687 47.4668 77.5609 47.5602 77.9893 47.7471C78.4222 47.9339 78.7617 48.2165 79.0078 48.5947C79.2585 48.9684 79.3838 49.4378 79.3838 50.0029V53.291C79.3838 53.6283 79.4066 53.9313 79.4521 54.2002C79.5023 54.4645 79.5729 54.6947 79.6641 54.8906V55H77.9756C77.8981 54.8223 77.8366 54.5967 77.791 54.3232C77.75 54.0452 77.7295 53.7764 77.7295 53.5166ZM77.9688 50.502L77.9824 51.5205H76.7998C76.4945 51.5205 76.2256 51.5501 75.9932 51.6094C75.7607 51.6641 75.5671 51.7461 75.4121 51.8555C75.2572 51.9648 75.141 52.097 75.0635 52.252C74.986 52.4069 74.9473 52.5824 74.9473 52.7783C74.9473 52.9743 74.9928 53.1543 75.084 53.3184C75.1751 53.4779 75.3073 53.6032 75.4805 53.6943C75.6582 53.7855 75.8724 53.8311 76.123 53.8311C76.4603 53.8311 76.7542 53.7627 77.0049 53.626C77.2601 53.4847 77.4606 53.3138 77.6064 53.1133C77.7523 52.9082 77.8298 52.7145 77.8389 52.5322L78.3721 53.2637C78.3174 53.4505 78.224 53.651 78.0918 53.8652C77.9596 54.0794 77.7865 54.2845 77.5723 54.4805C77.3626 54.6719 77.1097 54.8291 76.8135 54.9521C76.5218 55.0752 76.1846 55.1367 75.8018 55.1367C75.3187 55.1367 74.888 55.041 74.5098 54.8496C74.1315 54.6536 73.8353 54.3916 73.6211 54.0635C73.4069 53.7308 73.2998 53.3548 73.2998 52.9355C73.2998 52.5436 73.3727 52.1973 73.5186 51.8965C73.6689 51.5911 73.8877 51.3359 74.1748 51.1309C74.4665 50.9258 74.8219 50.7708 75.2412 50.666C75.6605 50.5566 76.139 50.502 76.6768 50.502H77.9688ZM82.7402 49.1826V55H81.0928V47.6035H82.6445L82.7402 49.1826ZM82.4463 51.0283L81.9131 51.0215C81.9176 50.4974 81.9906 50.0166 82.1318 49.5791C82.2777 49.1416 82.4782 48.7656 82.7334 48.4512C82.9932 48.1367 83.3031 47.8952 83.6631 47.7266C84.0231 47.5534 84.4242 47.4668 84.8662 47.4668C85.2217 47.4668 85.543 47.5169 85.8301 47.6172C86.1217 47.7129 86.3701 47.8701 86.5752 48.0889C86.7848 48.3076 86.9443 48.5924 87.0537 48.9434C87.1631 49.2897 87.2178 49.7158 87.2178 50.2217V55H85.5635V50.2148C85.5635 49.8594 85.5111 49.5791 85.4062 49.374C85.306 49.1644 85.1579 49.0163 84.9619 48.9297C84.7705 48.8385 84.5312 48.793 84.2441 48.793C83.9616 48.793 83.7087 48.8522 83.4854 48.9707C83.262 49.0892 83.0729 49.251 82.918 49.4561C82.7676 49.6611 82.6514 49.8981 82.5693 50.167C82.4873 50.4359 82.4463 50.723 82.4463 51.0283ZM90.6631 47.6035V55H89.0088V47.6035H90.6631ZM88.8994 45.6621C88.8994 45.4115 88.9814 45.2041 89.1455 45.04C89.3141 44.8714 89.5465 44.7871 89.8428 44.7871C90.1344 44.7871 90.3646 44.8714 90.5332 45.04C90.7018 45.2041 90.7861 45.4115 90.7861 45.6621C90.7861 45.9082 90.7018 46.1133 90.5332 46.2773C90.3646 46.4414 90.1344 46.5234 89.8428 46.5234C89.5465 46.5234 89.3141 46.4414 89.1455 46.2773C88.9814 46.1133 88.8994 45.9082 88.8994 45.6621ZM96.6172 52.9971C96.6172 52.833 96.5762 52.6849 96.4941 52.5527C96.4121 52.416 96.2549 52.293 96.0225 52.1836C95.7946 52.0742 95.4574 51.974 95.0107 51.8828C94.6188 51.7962 94.2588 51.6937 93.9307 51.5752C93.6071 51.4521 93.3291 51.304 93.0967 51.1309C92.8643 50.9577 92.6842 50.7526 92.5566 50.5156C92.429 50.2786 92.3652 50.0052 92.3652 49.6953C92.3652 49.3945 92.4313 49.1097 92.5635 48.8408C92.6956 48.5719 92.8848 48.335 93.1309 48.1299C93.377 47.9248 93.6755 47.763 94.0264 47.6445C94.3818 47.526 94.7783 47.4668 95.2158 47.4668C95.8356 47.4668 96.3665 47.5716 96.8086 47.7812C97.2552 47.9863 97.597 48.2666 97.834 48.6221C98.071 48.973 98.1895 49.3695 98.1895 49.8115H96.542C96.542 49.6156 96.4919 49.4333 96.3916 49.2646C96.2959 49.0915 96.1501 48.9525 95.9541 48.8477C95.7581 48.7383 95.512 48.6836 95.2158 48.6836C94.9333 48.6836 94.6986 48.7292 94.5117 48.8203C94.3294 48.9069 94.1927 49.0208 94.1016 49.1621C94.015 49.3034 93.9717 49.4583 93.9717 49.627C93.9717 49.75 93.9945 49.8617 94.04 49.9619C94.0902 50.0576 94.1722 50.1465 94.2861 50.2285C94.4001 50.306 94.555 50.3789 94.751 50.4473C94.9515 50.5156 95.2021 50.5817 95.5029 50.6455C96.068 50.764 96.5534 50.9167 96.959 51.1035C97.3691 51.2858 97.6836 51.5228 97.9023 51.8145C98.1211 52.1016 98.2305 52.4661 98.2305 52.9082C98.2305 53.2363 98.1598 53.5371 98.0186 53.8105C97.8818 54.0794 97.6813 54.3141 97.417 54.5146C97.1527 54.7106 96.8359 54.8633 96.4668 54.9727C96.1022 55.082 95.6921 55.1367 95.2363 55.1367C94.5664 55.1367 93.999 55.0182 93.5342 54.7812C93.0693 54.5397 92.7161 54.2321 92.4746 53.8584C92.2376 53.4801 92.1191 53.0882 92.1191 52.6826H93.7119C93.7301 52.988 93.8145 53.2318 93.9648 53.4141C94.1198 53.5918 94.3112 53.7217 94.5391 53.8037C94.7715 53.8812 95.0107 53.9199 95.2568 53.9199C95.5531 53.9199 95.8014 53.8812 96.002 53.8037C96.2025 53.7217 96.3551 53.6123 96.46 53.4756C96.5648 53.3343 96.6172 53.1748 96.6172 52.9971ZM101.3 44.5V55H99.6592V44.5H101.3ZM101.013 51.0283L100.479 51.0215C100.484 50.5111 100.555 50.0394 100.691 49.6064C100.833 49.1735 101.029 48.7975 101.279 48.4785C101.535 48.1549 101.84 47.9066 102.195 47.7334C102.551 47.5557 102.945 47.4668 103.378 47.4668C103.743 47.4668 104.071 47.5169 104.362 47.6172C104.659 47.7174 104.914 47.8792 105.128 48.1025C105.342 48.3213 105.504 48.6084 105.613 48.9639C105.727 49.3148 105.784 49.7432 105.784 50.249V55H104.13V50.2354C104.13 49.8799 104.077 49.5973 103.973 49.3877C103.872 49.1781 103.724 49.0277 103.528 48.9365C103.332 48.8408 103.093 48.793 102.811 48.793C102.514 48.793 102.252 48.8522 102.024 48.9707C101.801 49.0892 101.614 49.251 101.464 49.4561C101.313 49.6611 101.2 49.8981 101.122 50.167C101.049 50.4359 101.013 50.723 101.013 51.0283Z" fill="#DB524D"/>
<path d="M57.3574 9.37305L54.3838 18H52.5859L56.332 8.04688H57.4805L57.3574 9.37305ZM59.8457 18L56.8652 9.37305L56.7354 8.04688H57.8906L61.6504 18H59.8457ZM59.7021 14.3086V15.6689H54.2881V14.3086H59.7021ZM67.1123 16.4688V7.5H68.7666V18H67.2695L67.1123 16.4688ZM62.2998 14.3838V14.2402C62.2998 13.6797 62.3659 13.1693 62.498 12.709C62.6302 12.2441 62.8216 11.8454 63.0723 11.5127C63.3229 11.1755 63.6283 10.918 63.9883 10.7402C64.3483 10.5579 64.7539 10.4668 65.2051 10.4668C65.6517 10.4668 66.0436 10.5534 66.3809 10.7266C66.7181 10.8997 67.0052 11.1481 67.2422 11.4717C67.4792 11.7907 67.6683 12.1735 67.8096 12.6201C67.9508 13.0622 68.0511 13.5544 68.1104 14.0967V14.5547C68.0511 15.0833 67.9508 15.5664 67.8096 16.0039C67.6683 16.4414 67.4792 16.8197 67.2422 17.1387C67.0052 17.4577 66.7158 17.7038 66.374 17.877C66.0368 18.0501 65.6426 18.1367 65.1914 18.1367C64.7448 18.1367 64.3415 18.0433 63.9814 17.8564C63.626 17.6696 63.3229 17.4076 63.0723 17.0703C62.8216 16.7331 62.6302 16.3366 62.498 15.8809C62.3659 15.4206 62.2998 14.9215 62.2998 14.3838ZM63.9473 14.2402V14.3838C63.9473 14.721 63.9769 15.0355 64.0361 15.3271C64.0999 15.6188 64.1979 15.8763 64.3301 16.0996C64.4622 16.3184 64.6331 16.4915 64.8428 16.6191C65.057 16.7422 65.3122 16.8037 65.6084 16.8037C65.9821 16.8037 66.2897 16.7217 66.5312 16.5576C66.7728 16.3936 66.9619 16.1725 67.0986 15.8945C67.2399 15.612 67.3356 15.2975 67.3857 14.9512V13.7139C67.3584 13.445 67.3014 13.1943 67.2148 12.9619C67.1328 12.7295 67.0212 12.5267 66.8799 12.3535C66.7386 12.1758 66.5632 12.0391 66.3535 11.9434C66.1484 11.8431 65.9046 11.793 65.6221 11.793C65.3213 11.793 65.0661 11.8568 64.8564 11.9844C64.6468 12.112 64.4736 12.2874 64.3369 12.5107C64.2048 12.734 64.1068 12.9938 64.043 13.29C63.9792 13.5863 63.9473 13.903 63.9473 14.2402ZM75.001 16.4688V7.5H76.6553V18H75.1582L75.001 16.4688ZM70.1885 14.3838V14.2402C70.1885 13.6797 70.2546 13.1693 70.3867 12.709C70.5189 12.2441 70.7103 11.8454 70.9609 11.5127C71.2116 11.1755 71.5169 10.918 71.877 10.7402C72.237 10.5579 72.6426 10.4668 73.0938 10.4668C73.5404 10.4668 73.9323 10.5534 74.2695 10.7266C74.6068 10.8997 74.8939 11.1481 75.1309 11.4717C75.3678 11.7907 75.557 12.1735 75.6982 12.6201C75.8395 13.0622 75.9398 13.5544 75.999 14.0967V14.5547C75.9398 15.0833 75.8395 15.5664 75.6982 16.0039C75.557 16.4414 75.3678 16.8197 75.1309 17.1387C74.8939 17.4577 74.6045 17.7038 74.2627 17.877C73.9255 18.0501 73.5312 18.1367 73.0801 18.1367C72.6335 18.1367 72.2301 18.0433 71.8701 17.8564C71.5146 17.6696 71.2116 17.4076 70.9609 17.0703C70.7103 16.7331 70.5189 16.3366 70.3867 15.8809C70.2546 15.4206 70.1885 14.9215 70.1885 14.3838ZM71.8359 14.2402V14.3838C71.8359 14.721 71.8656 15.0355 71.9248 15.3271C71.9886 15.6188 72.0866 15.8763 72.2188 16.0996C72.3509 16.3184 72.5218 16.4915 72.7314 16.6191C72.9456 16.7422 73.2008 16.8037 73.4971 16.8037C73.8708 16.8037 74.1784 16.7217 74.4199 16.5576C74.6615 16.3936 74.8506 16.1725 74.9873 15.8945C75.1286 15.612 75.2243 15.2975 75.2744 14.9512V13.7139C75.2471 13.445 75.1901 13.1943 75.1035 12.9619C75.0215 12.7295 74.9098 12.5267 74.7686 12.3535C74.6273 12.1758 74.4518 12.0391 74.2422 11.9434C74.0371 11.8431 73.7933 11.793 73.5107 11.793C73.21 11.793 72.9548 11.8568 72.7451 11.9844C72.5355 12.112 72.3623 12.2874 72.2256 12.5107C72.0934 12.734 71.9954 12.9938 71.9316 13.29C71.8678 13.5863 71.8359 13.903 71.8359 14.2402Z" fill="#DB524D"/>
<path d="M16.8203 89.2881H14.2295V87.9277H16.8203C17.2715 87.9277 17.6361 87.8548 17.9141 87.709C18.1921 87.5632 18.3949 87.3626 18.5225 87.1074C18.6546 86.8477 18.7207 86.5514 18.7207 86.2188C18.7207 85.9043 18.6546 85.6104 18.5225 85.3369C18.3949 85.0589 18.1921 84.8356 17.9141 84.667C17.6361 84.4984 17.2715 84.4141 16.8203 84.4141H14.7559V93H13.04V83.0469H16.8203C17.5905 83.0469 18.2445 83.1836 18.7822 83.457C19.3245 83.7259 19.737 84.0996 20.0195 84.5781C20.3021 85.0521 20.4434 85.5944 20.4434 86.2051C20.4434 86.8477 20.3021 87.3991 20.0195 87.8594C19.737 88.3197 19.3245 88.6729 18.7822 88.9189C18.2445 89.165 17.5905 89.2881 16.8203 89.2881ZM23.5811 82.5V93H21.9268V82.5H23.5811ZM29.5557 91.5166V87.9893C29.5557 87.7249 29.5078 87.4971 29.4121 87.3057C29.3164 87.1143 29.1706 86.9661 28.9746 86.8613C28.7832 86.7565 28.5417 86.7041 28.25 86.7041C27.9811 86.7041 27.7487 86.7497 27.5527 86.8408C27.3568 86.932 27.2041 87.055 27.0947 87.21C26.9854 87.3649 26.9307 87.5404 26.9307 87.7363H25.29C25.29 87.4447 25.3607 87.1621 25.502 86.8887C25.6432 86.6152 25.8483 86.3714 26.1172 86.1572C26.3861 85.943 26.7074 85.7744 27.0811 85.6514C27.4548 85.5283 27.874 85.4668 28.3389 85.4668C28.8949 85.4668 29.387 85.5602 29.8154 85.7471C30.2484 85.9339 30.5879 86.2165 30.834 86.5947C31.0846 86.9684 31.21 87.4378 31.21 88.0029V91.291C31.21 91.6283 31.2327 91.9313 31.2783 92.2002C31.3285 92.4645 31.3991 92.6947 31.4902 92.8906V93H29.8018C29.7243 92.8223 29.6628 92.5967 29.6172 92.3232C29.5762 92.0452 29.5557 91.7764 29.5557 91.5166ZM29.7949 88.502L29.8086 89.5205H28.626C28.3206 89.5205 28.0518 89.5501 27.8193 89.6094C27.5869 89.6641 27.3932 89.7461 27.2383 89.8555C27.0833 89.9648 26.9671 90.097 26.8896 90.252C26.8122 90.4069 26.7734 90.5824 26.7734 90.7783C26.7734 90.9743 26.819 91.1543 26.9102 91.3184C27.0013 91.4779 27.1335 91.6032 27.3066 91.6943C27.4844 91.7855 27.6986 91.8311 27.9492 91.8311C28.2865 91.8311 28.5804 91.7627 28.8311 91.626C29.0863 91.4847 29.2868 91.3138 29.4326 91.1133C29.5785 90.9082 29.6559 90.7145 29.665 90.5322L30.1982 91.2637C30.1436 91.4505 30.0501 91.651 29.918 91.8652C29.7858 92.0794 29.6126 92.2845 29.3984 92.4805C29.1888 92.6719 28.9359 92.8291 28.6396 92.9521C28.348 93.0752 28.0107 93.1367 27.6279 93.1367C27.1449 93.1367 26.7142 93.041 26.3359 92.8496C25.9577 92.6536 25.6615 92.3916 25.4473 92.0635C25.2331 91.7308 25.126 91.3548 25.126 90.9355C25.126 90.5436 25.1989 90.1973 25.3447 89.8965C25.4951 89.5911 25.7139 89.3359 26.001 89.1309C26.2926 88.9258 26.6481 88.7708 27.0674 88.666C27.4867 88.5566 27.9652 88.502 28.5029 88.502H29.7949ZM34.5664 87.1826V93H32.9189V85.6035H34.4707L34.5664 87.1826ZM34.2725 89.0283L33.7393 89.0215C33.7438 88.4974 33.8167 88.0166 33.958 87.5791C34.1038 87.1416 34.3044 86.7656 34.5596 86.4512C34.8193 86.1367 35.1292 85.8952 35.4893 85.7266C35.8493 85.5534 36.2503 85.4668 36.6924 85.4668C37.0479 85.4668 37.3691 85.5169 37.6562 85.6172C37.9479 85.7129 38.1963 85.8701 38.4014 86.0889C38.611 86.3076 38.7705 86.5924 38.8799 86.9434C38.9893 87.2897 39.0439 87.7158 39.0439 88.2217V93H37.3896V88.2148C37.3896 87.8594 37.3372 87.5791 37.2324 87.374C37.1322 87.1644 36.984 87.0163 36.7881 86.9297C36.5967 86.8385 36.3574 86.793 36.0703 86.793C35.7878 86.793 35.5348 86.8522 35.3115 86.9707C35.0882 87.0892 34.8991 87.251 34.7441 87.4561C34.5938 87.6611 34.4775 87.8981 34.3955 88.167C34.3135 88.4359 34.2725 88.723 34.2725 89.0283ZM47.6025 85.6035V86.8066H43.4326V85.6035H47.6025ZM44.6357 83.792H46.2832V90.9561C46.2832 91.1839 46.3151 91.3594 46.3789 91.4824C46.4473 91.6009 46.5407 91.6807 46.6592 91.7217C46.7777 91.7627 46.9167 91.7832 47.0762 91.7832C47.1901 91.7832 47.2995 91.7764 47.4043 91.7627C47.5091 91.749 47.5934 91.7354 47.6572 91.7217L47.6641 92.9795C47.5273 93.0205 47.3678 93.057 47.1855 93.0889C47.0078 93.1208 46.8027 93.1367 46.5703 93.1367C46.1921 93.1367 45.8571 93.0706 45.5654 92.9385C45.2738 92.8018 45.0459 92.5807 44.8818 92.2754C44.7178 91.9701 44.6357 91.5645 44.6357 91.0586V83.792ZM50.501 82.5V93H48.8604V82.5H50.501ZM50.2139 89.0283L49.6807 89.0215C49.6852 88.5111 49.7559 88.0394 49.8926 87.6064C50.0339 87.1735 50.2298 86.7975 50.4805 86.4785C50.7357 86.1549 51.041 85.9066 51.3965 85.7334C51.752 85.5557 52.1462 85.4668 52.5791 85.4668C52.9437 85.4668 53.2718 85.5169 53.5635 85.6172C53.8597 85.7174 54.1149 85.8792 54.3291 86.1025C54.5433 86.3213 54.7051 86.6084 54.8145 86.9639C54.9284 87.3148 54.9854 87.7432 54.9854 88.249V93H53.3311V88.2354C53.3311 87.8799 53.2786 87.5973 53.1738 87.3877C53.0736 87.1781 52.9255 87.0277 52.7295 86.9365C52.5335 86.8408 52.2943 86.793 52.0117 86.793C51.7155 86.793 51.4535 86.8522 51.2256 86.9707C51.0023 87.0892 50.8154 87.251 50.665 87.4561C50.5146 87.6611 50.4007 87.8981 50.3232 88.167C50.2503 88.4359 50.2139 88.723 50.2139 89.0283ZM59.9141 93.1367C59.3672 93.1367 58.8727 93.0479 58.4307 92.8701C57.9932 92.6878 57.6195 92.4349 57.3096 92.1113C57.0042 91.7878 56.7695 91.4072 56.6055 90.9697C56.4414 90.5322 56.3594 90.0605 56.3594 89.5547V89.2812C56.3594 88.7025 56.4437 88.1784 56.6123 87.709C56.7809 87.2396 57.0156 86.8385 57.3164 86.5059C57.6172 86.1686 57.9727 85.9111 58.3828 85.7334C58.793 85.5557 59.2373 85.4668 59.7158 85.4668C60.2445 85.4668 60.707 85.5557 61.1035 85.7334C61.5 85.9111 61.8281 86.1618 62.0879 86.4854C62.3522 86.8044 62.5482 87.1849 62.6758 87.627C62.8079 88.069 62.874 88.5566 62.874 89.0898V89.7939H57.1592V88.6113H61.2471V88.4814C61.238 88.1852 61.1787 87.9072 61.0693 87.6475C60.9645 87.3877 60.8027 87.1781 60.584 87.0186C60.3652 86.859 60.0736 86.7793 59.709 86.7793C59.4355 86.7793 59.1917 86.8385 58.9775 86.957C58.7679 87.071 58.5924 87.2373 58.4512 87.4561C58.3099 87.6748 58.2005 87.9391 58.123 88.249C58.0501 88.5544 58.0137 88.8984 58.0137 89.2812V89.5547C58.0137 89.8783 58.057 90.179 58.1436 90.457C58.2347 90.7305 58.3669 90.9697 58.54 91.1748C58.7132 91.3799 58.9229 91.5417 59.1689 91.6602C59.415 91.7741 59.6953 91.8311 60.0098 91.8311C60.4062 91.8311 60.7594 91.7513 61.0693 91.5918C61.3792 91.4323 61.6481 91.2067 61.876 90.915L62.7441 91.7559C62.5846 91.9883 62.3773 92.2116 62.1221 92.4258C61.8669 92.6354 61.5547 92.8063 61.1855 92.9385C60.821 93.0706 60.3971 93.1367 59.9141 93.1367ZM69.293 87.1074V93H67.6455V85.6035H69.1973L69.293 87.1074ZM69.0264 89.0283L68.4658 89.0215C68.4658 88.5111 68.5296 88.0394 68.6572 87.6064C68.7848 87.1735 68.9717 86.7975 69.2178 86.4785C69.4639 86.1549 69.7692 85.9066 70.1338 85.7334C70.5029 85.5557 70.929 85.4668 71.4121 85.4668C71.7493 85.4668 72.057 85.5169 72.335 85.6172C72.6175 85.7129 72.8613 85.8656 73.0664 86.0752C73.276 86.2848 73.4355 86.5537 73.5449 86.8818C73.6589 87.21 73.7158 87.6064 73.7158 88.0713V93H72.0684V88.2148C72.0684 87.8548 72.0137 87.5723 71.9043 87.3672C71.7995 87.1621 71.6468 87.0163 71.4463 86.9297C71.2503 86.8385 71.0156 86.793 70.7422 86.793C70.4323 86.793 70.168 86.8522 69.9492 86.9707C69.735 87.0892 69.5596 87.251 69.4229 87.4561C69.2861 87.6611 69.1859 87.8981 69.1221 88.167C69.0583 88.4359 69.0264 88.723 69.0264 89.0283ZM73.6133 88.5908L72.8408 88.7617C72.8408 88.3151 72.9023 87.8936 73.0254 87.4971C73.153 87.096 73.3376 86.7451 73.5791 86.4443C73.8252 86.139 74.1283 85.8997 74.4883 85.7266C74.8483 85.5534 75.2607 85.4668 75.7256 85.4668C76.1038 85.4668 76.4411 85.5192 76.7373 85.624C77.0381 85.7243 77.2933 85.8838 77.5029 86.1025C77.7126 86.3213 77.8721 86.6061 77.9814 86.957C78.0908 87.3034 78.1455 87.7227 78.1455 88.2148V93H76.4912V88.208C76.4912 87.8343 76.4365 87.5449 76.3271 87.3398C76.2223 87.1348 76.0719 86.9935 75.876 86.916C75.68 86.834 75.4453 86.793 75.1719 86.793C74.9167 86.793 74.6911 86.8408 74.4951 86.9365C74.3037 87.0277 74.1419 87.1576 74.0098 87.3262C73.8776 87.4902 73.7773 87.6794 73.709 87.8936C73.6452 88.1077 73.6133 88.3402 73.6133 88.5908ZM83.1016 93.1367C82.5547 93.1367 82.0602 93.0479 81.6182 92.8701C81.1807 92.6878 80.807 92.4349 80.4971 92.1113C80.1917 91.7878 79.957 91.4072 79.793 90.9697C79.6289 90.5322 79.5469 90.0605 79.5469 89.5547V89.2812C79.5469 88.7025 79.6312 88.1784 79.7998 87.709C79.9684 87.2396 80.2031 86.8385 80.5039 86.5059C80.8047 86.1686 81.1602 85.9111 81.5703 85.7334C81.9805 85.5557 82.4248 85.4668 82.9033 85.4668C83.432 85.4668 83.8945 85.5557 84.291 85.7334C84.6875 85.9111 85.0156 86.1618 85.2754 86.4854C85.5397 86.8044 85.7357 87.1849 85.8633 87.627C85.9954 88.069 86.0615 88.5566 86.0615 89.0898V89.7939H80.3467V88.6113H84.4346V88.4814C84.4255 88.1852 84.3662 87.9072 84.2568 87.6475C84.152 87.3877 83.9902 87.1781 83.7715 87.0186C83.5527 86.859 83.2611 86.7793 82.8965 86.7793C82.623 86.7793 82.3792 86.8385 82.165 86.957C81.9554 87.071 81.7799 87.2373 81.6387 87.4561C81.4974 87.6748 81.388 87.9391 81.3105 88.249C81.2376 88.5544 81.2012 88.8984 81.2012 89.2812V89.5547C81.2012 89.8783 81.2445 90.179 81.3311 90.457C81.4222 90.7305 81.5544 90.9697 81.7275 91.1748C81.9007 91.3799 82.1104 91.5417 82.3564 91.6602C82.6025 91.7741 82.8828 91.8311 83.1973 91.8311C83.5938 91.8311 83.9469 91.7513 84.2568 91.5918C84.5667 91.4323 84.8356 91.2067 85.0635 90.915L85.9316 91.7559C85.7721 91.9883 85.5648 92.2116 85.3096 92.4258C85.0544 92.6354 84.7422 92.8063 84.373 92.9385C84.0085 93.0706 83.5846 93.1367 83.1016 93.1367ZM90.6074 93.1367C90.0605 93.1367 89.5661 93.0479 89.124 92.8701C88.6865 92.6878 88.3128 92.4349 88.0029 92.1113C87.6976 91.7878 87.4629 91.4072 87.2988 90.9697C87.1348 90.5322 87.0527 90.0605 87.0527 89.5547V89.2812C87.0527 88.7025 87.137 88.1784 87.3057 87.709C87.4743 87.2396 87.709 86.8385 88.0098 86.5059C88.3105 86.1686 88.666 85.9111 89.0762 85.7334C89.4863 85.5557 89.9307 85.4668 90.4092 85.4668C90.9378 85.4668 91.4004 85.5557 91.7969 85.7334C92.1934 85.9111 92.5215 86.1618 92.7812 86.4854C93.0456 86.8044 93.2415 87.1849 93.3691 87.627C93.5013 88.069 93.5674 88.5566 93.5674 89.0898V89.7939H87.8525V88.6113H91.9404V88.4814C91.9313 88.1852 91.8721 87.9072 91.7627 87.6475C91.6579 87.3877 91.4961 87.1781 91.2773 87.0186C91.0586 86.859 90.7669 86.7793 90.4023 86.7793C90.1289 86.7793 89.8851 86.8385 89.6709 86.957C89.4613 87.071 89.2858 87.2373 89.1445 87.4561C89.0033 87.6748 88.8939 87.9391 88.8164 88.249C88.7435 88.5544 88.707 88.8984 88.707 89.2812V89.5547C88.707 89.8783 88.7503 90.179 88.8369 90.457C88.9281 90.7305 89.0602 90.9697 89.2334 91.1748C89.4066 91.3799 89.6162 91.5417 89.8623 91.6602C90.1084 91.7741 90.3887 91.8311 90.7031 91.8311C91.0996 91.8311 91.4528 91.7513 91.7627 91.5918C92.0726 91.4323 92.3415 91.2067 92.5693 90.915L93.4375 91.7559C93.278 91.9883 93.0706 92.2116 92.8154 92.4258C92.5602 92.6354 92.248 92.8063 91.8789 92.9385C91.5143 93.0706 91.0905 93.1367 90.6074 93.1367ZM98.2432 85.6035V86.8066H94.0732V85.6035H98.2432ZM95.2764 83.792H96.9238V90.9561C96.9238 91.1839 96.9557 91.3594 97.0195 91.4824C97.0879 91.6009 97.1813 91.6807 97.2998 91.7217C97.4183 91.7627 97.5573 91.7832 97.7168 91.7832C97.8307 91.7832 97.9401 91.7764 98.0449 91.7627C98.1497 91.749 98.234 91.7354 98.2979 91.7217L98.3047 92.9795C98.168 93.0205 98.0085 93.057 97.8262 93.0889C97.6484 93.1208 97.4434 93.1367 97.2109 93.1367C96.8327 93.1367 96.4977 93.0706 96.2061 92.9385C95.9144 92.8018 95.6865 92.5807 95.5225 92.2754C95.3584 91.9701 95.2764 91.5645 95.2764 91.0586V83.792ZM101.278 85.6035V93H99.624V85.6035H101.278ZM99.5146 83.6621C99.5146 83.4115 99.5967 83.2041 99.7607 83.04C99.9294 82.8714 100.162 82.7871 100.458 82.7871C100.75 82.7871 100.98 82.8714 101.148 83.04C101.317 83.2041 101.401 83.4115 101.401 83.6621C101.401 83.9082 101.317 84.1133 101.148 84.2773C100.98 84.4414 100.75 84.5234 100.458 84.5234C100.162 84.5234 99.9294 84.4414 99.7607 84.2773C99.5967 84.1133 99.5146 83.9082 99.5146 83.6621ZM104.717 87.1826V93H103.069V85.6035H104.621L104.717 87.1826ZM104.423 89.0283L103.89 89.0215C103.894 88.4974 103.967 88.0166 104.108 87.5791C104.254 87.1416 104.455 86.7656 104.71 86.4512C104.97 86.1367 105.28 85.8952 105.64 85.7266C106 85.5534 106.401 85.4668 106.843 85.4668C107.198 85.4668 107.52 85.5169 107.807 85.6172C108.098 85.7129 108.347 85.8701 108.552 86.0889C108.761 86.3076 108.921 86.5924 109.03 86.9434C109.14 87.2897 109.194 87.7158 109.194 88.2217V93H107.54V88.2148C107.54 87.8594 107.488 87.5791 107.383 87.374C107.283 87.1644 107.134 87.0163 106.938 86.9297C106.747 86.8385 106.508 86.793 106.221 86.793C105.938 86.793 105.685 86.8522 105.462 86.9707C105.239 87.0892 105.049 87.251 104.895 87.4561C104.744 87.6611 104.628 87.8981 104.546 88.167C104.464 88.4359 104.423 88.723 104.423 89.0283ZM115.613 85.6035H117.11V92.7949C117.11 93.4603 116.969 94.0254 116.687 94.4902C116.404 94.9551 116.01 95.3083 115.504 95.5498C114.998 95.7959 114.412 95.9189 113.747 95.9189C113.465 95.9189 113.15 95.8779 112.804 95.7959C112.462 95.7139 112.129 95.5817 111.806 95.3994C111.487 95.2217 111.22 94.987 111.006 94.6953L111.778 93.7246C112.043 94.0391 112.334 94.2692 112.653 94.415C112.972 94.5609 113.307 94.6338 113.658 94.6338C114.036 94.6338 114.358 94.5632 114.622 94.4219C114.891 94.2852 115.098 94.0824 115.244 93.8135C115.39 93.5446 115.463 93.2165 115.463 92.8291V87.2783L115.613 85.6035ZM110.589 89.3838V89.2402C110.589 88.6797 110.657 88.1693 110.794 87.709C110.931 87.2441 111.127 86.8454 111.382 86.5127C111.637 86.1755 111.947 85.918 112.312 85.7402C112.676 85.5579 113.089 85.4668 113.549 85.4668C114.027 85.4668 114.435 85.5534 114.772 85.7266C115.114 85.8997 115.399 86.1481 115.627 86.4717C115.855 86.7907 116.033 87.1735 116.16 87.6201C116.292 88.0622 116.39 88.5544 116.454 89.0967V89.5547C116.395 90.0833 116.295 90.5664 116.153 91.0039C116.012 91.4414 115.825 91.8197 115.593 92.1387C115.36 92.4577 115.073 92.7038 114.731 92.877C114.394 93.0501 113.995 93.1367 113.535 93.1367C113.084 93.1367 112.676 93.0433 112.312 92.8564C111.951 92.6696 111.642 92.4076 111.382 92.0703C111.127 91.7331 110.931 91.3366 110.794 90.8809C110.657 90.4206 110.589 89.9215 110.589 89.3838ZM112.236 89.2402V89.3838C112.236 89.721 112.268 90.0355 112.332 90.3271C112.4 90.6188 112.503 90.8763 112.64 91.0996C112.781 91.3184 112.959 91.4915 113.173 91.6191C113.392 91.7422 113.649 91.8037 113.945 91.8037C114.333 91.8037 114.649 91.7217 114.896 91.5576C115.146 91.3936 115.338 91.1725 115.47 90.8945C115.606 90.612 115.702 90.2975 115.757 89.9512V88.7139C115.729 88.445 115.673 88.1943 115.586 87.9619C115.504 87.7295 115.392 87.5267 115.251 87.3535C115.11 87.1758 114.932 87.0391 114.718 86.9434C114.504 86.8431 114.251 86.793 113.959 86.793C113.663 86.793 113.405 86.8568 113.187 86.9844C112.968 87.112 112.788 87.2874 112.646 87.5107C112.51 87.734 112.407 87.9938 112.339 88.29C112.271 88.5863 112.236 88.903 112.236 89.2402Z" fill="#DB524D"/>
</svg>
