<?xml version="1.0" encoding="utf-8"?>
<!-- Generator: Adobe Illustrator 26.0.3, SVG Export Plug-In . SVG Version: 6.00 Build 0)  -->
<svg version="1.1" id="Warstwa_1" xmlns="http://www.w3.org/2000/svg" xmlns:xlink="http://www.w3.org/1999/xlink" x="0px" y="0px"
	 viewBox="0 0 109.7 110" style="enable-background:new 0 0 109.7 110;" xml:space="preserve">
<style type="text/css">
	.st0{fill:#FFD9D8;}
	.st1{fill:#DB524D;}
</style>
<path class="st0" d="M74,4.6c12.6,4.7,23,14,29.1,26s7.5,25.9,4,38.9c-3.6,13-11.9,24.2-23.3,31.4c-11.4,7.2-25.1,9.9-38.3,7.5
	c-13.3-2.4-25.2-9.6-33.3-20.3C4,77.3,0.1,63.9,1.2,50.5c1.2-13.4,7.3-25.9,17.2-35.1C28.4,6.3,41.3,1.2,54.8,1.2l0.2,54L74,4.6z"/>
<path class="st1" d="M34.4,62.4v2.8H20.1v-2.4l6.9-7.6c0.8-0.9,1.4-1.6,1.8-2.2c0.4-0.6,0.7-1.2,0.9-1.7c0.2-0.5,0.3-1,0.3-1.5
	c0-0.7-0.1-1.3-0.4-1.8c-0.2-0.5-0.6-0.9-1.1-1.2c-0.5-0.3-1.1-0.5-1.7-0.5c-0.8,0-1.5,0.2-2,0.5c-0.5,0.3-0.9,0.8-1.2,1.4
	c-0.3,0.6-0.4,1.3-0.4,2.1h-3.5c0-1.2,0.3-2.4,0.8-3.4c0.6-1,1.4-1.9,2.5-2.5c1.1-0.6,2.4-0.9,3.9-0.9c1.4,0,2.6,0.2,3.6,0.7
	s1.8,1.2,2.3,2c0.5,0.9,0.8,1.9,0.8,3.1c0,0.7-0.1,1.3-0.3,2c-0.2,0.7-0.5,1.3-0.9,2c-0.4,0.6-0.9,1.3-1.4,1.9
	c-0.5,0.6-1.1,1.3-1.8,2l-4.6,5.1H34.4z M51.8,57.6v2.8H36.4l-0.1-2.1l9.2-14.4h2.8l-3.1,5.2L40,57.6H51.8z M49.2,43.8v21.3h-3.5
	V43.8H49.2z M54.4,63.4c0-0.5,0.2-1,0.6-1.4c0.4-0.4,0.9-0.6,1.5-0.6c0.6,0,1.1,0.2,1.5,0.6c0.4,0.4,0.6,0.8,0.6,1.4
	c0,0.5-0.2,1-0.6,1.4c-0.4,0.4-0.9,0.6-1.5,0.6c-0.6,0-1.1-0.2-1.5-0.6C54.6,64.4,54.4,64,54.4,63.4z M54.4,50.9
	c0-0.5,0.2-1,0.6-1.4c0.4-0.4,0.9-0.6,1.5-0.6c0.6,0,1.1,0.2,1.5,0.6c0.4,0.4,0.6,0.8,0.6,1.4c0,0.5-0.2,1-0.6,1.4
	c-0.4,0.4-0.9,0.6-1.5,0.6c-0.6,0-1.1-0.2-1.5-0.6S54.4,51.5,54.4,50.9z M76,52.7v3.5c0,1.7-0.2,3.1-0.5,4.3
	c-0.3,1.2-0.8,2.1-1.4,2.9c-0.6,0.7-1.4,1.3-2.2,1.6c-0.8,0.3-1.8,0.5-2.9,0.5c-0.8,0-1.6-0.1-2.3-0.3c-0.7-0.2-1.4-0.6-1.9-1
	c-0.6-0.5-1.1-1-1.5-1.8c-0.4-0.7-0.7-1.6-0.9-2.6c-0.2-1-0.3-2.2-0.3-3.5v-3.5c0-1.7,0.2-3.1,0.5-4.2c0.3-1.2,0.8-2.1,1.4-2.8
	c0.6-0.7,1.3-1.3,2.2-1.6c0.9-0.3,1.8-0.5,2.9-0.5c0.8,0,1.6,0.1,2.3,0.3c0.7,0.2,1.4,0.5,1.9,1c0.6,0.4,1.1,1,1.5,1.8
	c0.4,0.7,0.7,1.6,0.9,2.6C75.9,50.2,76,51.4,76,52.7z M72.5,56.7v-4.5c0-0.8,0-1.6-0.1-2.2c-0.1-0.7-0.2-1.2-0.4-1.7
	c-0.2-0.5-0.4-0.8-0.7-1.1c-0.3-0.3-0.6-0.5-1-0.6c-0.4-0.1-0.8-0.2-1.2-0.2c-0.5,0-1,0.1-1.5,0.3c-0.4,0.2-0.8,0.5-1.1,1
	c-0.3,0.5-0.5,1.1-0.7,1.8c-0.1,0.7-0.2,1.6-0.2,2.7v4.5c0,0.9,0,1.6,0.1,2.3c0.1,0.7,0.2,1.2,0.4,1.7c0.2,0.5,0.4,0.8,0.7,1.1
	c0.3,0.3,0.6,0.5,1,0.6c0.4,0.1,0.8,0.2,1.2,0.2c0.6,0,1-0.1,1.5-0.3c0.4-0.2,0.8-0.6,1.1-1c0.3-0.5,0.5-1.1,0.7-1.9
	C72.4,58.7,72.5,57.8,72.5,56.7z M82,62.4h0.3c1.3,0,2.5-0.2,3.4-0.5c0.9-0.4,1.6-0.9,2.2-1.5c0.5-0.6,0.9-1.4,1.2-2.2
	c0.2-0.9,0.4-1.8,0.4-2.8v-3.7c0-0.9-0.1-1.6-0.3-2.3c-0.2-0.7-0.4-1.2-0.8-1.7c-0.3-0.4-0.7-0.8-1.1-1c-0.4-0.2-0.9-0.3-1.4-0.3
	c-0.5,0-1,0.1-1.5,0.4c-0.4,0.2-0.8,0.6-1.1,1c-0.3,0.4-0.5,0.9-0.7,1.5c-0.1,0.5-0.2,1.1-0.2,1.8c0,0.6,0.1,1.2,0.2,1.7
	c0.1,0.5,0.4,1,0.6,1.4c0.3,0.4,0.6,0.8,1.1,1c0.4,0.2,0.9,0.4,1.5,0.4c0.5,0,1.1-0.1,1.5-0.3c0.5-0.2,0.9-0.5,1.2-0.9
	c0.3-0.4,0.6-0.8,0.8-1.2c0.2-0.4,0.3-0.9,0.3-1.4l1.3,0.4c0,0.7-0.2,1.5-0.5,2.2c-0.3,0.7-0.7,1.4-1.3,2c-0.5,0.6-1.2,1.1-1.9,1.4
	c-0.7,0.4-1.5,0.5-2.3,0.5c-1,0-1.9-0.2-2.7-0.6c-0.8-0.4-1.4-0.9-1.9-1.6c-0.5-0.7-0.9-1.4-1.1-2.3S78.9,52,78.9,51
	c0-1,0.2-2,0.5-2.9c0.3-0.9,0.8-1.7,1.4-2.4c0.6-0.7,1.3-1.2,2.2-1.6c0.9-0.4,1.8-0.6,2.9-0.6c1.2,0,2.2,0.2,3,0.7
	c0.9,0.4,1.6,1.1,2.2,1.9c0.6,0.8,1,1.7,1.3,2.8c0.3,1,0.5,2.2,0.5,3.4v1.2c0,1.3-0.1,2.5-0.3,3.6c-0.2,1.2-0.6,2.2-1.1,3.2
	c-0.5,1-1.2,1.9-2,2.6c-0.8,0.7-1.8,1.3-3,1.7c-1.2,0.4-2.5,0.6-4.1,0.6H82V62.4z"/>
</svg>
